{"title":"WWE.NXT.2011.04.05.WebRip.x264","uid":6299544,"size":290173400,"categoryP":"video","categoryS":"tv_shows","magnet":"?xt=urn:btih:61a8e7763fa4aca6a7c5384dbcaa078a518fd418&amp;dn=WWE.NXT.2011.04.05.WebRip.x264&amp;tr=udp%3A%2F%2Ftracker.openbittorrent.com%3A80&amp;tr=udp%3A%2F%2Fopen.demonii.com%3A1337&amp;tr=udp%3A%2F%2Ftracker.coppersurfer.tk%3A6969&amp;tr=udp%3A%2F%2Fexodus.desync.com%3A6969","seeders":0,"leechers":0,"uploader":"scene4all","files":2,"time":1302109480,"description":"--------------------------------------------------------------------------------\n                                                                                \n           SSSSSSSSSSSSSSS       444444444                 AAA                  \n         SS:::::::::::::::S     4::::::::4                A:::A                 \n        S:::::SSSSSS::::::S    4:::::::::4               A:::::A                \n        S:::::S     SSSSSSS   4::::44::::4              A:::::::A               \n        S:::::S              4::::4 4::::4             A:::::::::A              \n        S:::::S             4::::4  4::::4            A:::::A:::::A             \n         S::::SSSS         4::::4   4::::4           A:::::A A:::::A            \n          SS::::::SSSSS   4::::444444::::444        A:::::A   A:::::A           \n            SSS::::::::SS 4::::::::::::::::4       A:::::A     A:::::A          \n               SSSSSS::::S4444444444:::::444      A:::::AAAAAAAAA:::::A         \n                    S:::::S         4::::4       A:::::::::::::::::::::A        \n                    S:::::S         4::::4      A:::::AAAAAAAAAAAAA:::::A       \n        SSSSSSS     S:::::S         4::::4     A:::::A             A:::::A      \n        S::::::SSSSSS:::::S       44::::::44  A:::::A               A:::::A     \n        S:::::::::::::::SS        4::::::::4 A:::::A                 A:::::A    \n         SSSSSSSSSSSSSSS          4444444444AAAAAAA                   AAAAAAA   \n                                                                                \n                                                                                \n---------------------------------------------------------------------------------\n\n                           WWE.NXT.2011.04.05.WebRip.X264                        \n\n---------------------------------------------------------------------------------\n\nGeneral\nComplete name                   : WWE.NXT.2011.04.05.WebRip.X264.mp4\nFormat                          : MPEG-4\nFormat profile                  : Base Media\nCodec ID                        : isom\nFile size                       : 277 MiB\nDuration                        : 52mn 28s\nOverall bit rate                : 737 Kbps\nWriting application             : Lavf52.32.0\n\nVideo\nID                              : 1\nFormat                          : AVC\nFormat/Info                     : Advanced Video Codec\nFormat profile                  : &lt;a class=&quot;__cf_email__&quot; href=&quot;/cdn-cgi/l/email-protection&quot; data-cfemail=&quot;a8e5c9c1c6e8e49b8698&quot;&gt;[email&amp;#160;protected]&lt;/a&gt;&lt;script cf-hash='f9e31' type=&quot;text/javascript&quot;&gt;\n/* &lt;![CDATA[ */!function(){try{var t=&quot;currentScript&quot;in document?document.currentScript:function(){for(var t=document.getElementsByTagName(&quot;script&quot;),e=t.length;e--;)if(t[e].getAttribute(&quot;cf-hash&quot;))return t[e]}();if(t&amp;&amp;t.previousSibling){var e,r,n,i,c=t.previousSibling,a=c.getAttribute(&quot;data-cfemail&quot;);if(a){for(e=&quot;&quot;,r=parseInt(a.substr(0,2),16),n=2;a.length-n;n+=2)i=parseInt(a.substr(n,2),16)^r,e+=String.fromCharCode(i);e=document.createTextNode(e),c.parentNode.replaceChild(e,c)}}}catch(u){}}();/* ]]&gt; */&lt;/script&gt;\nFormat settings, CABAC          : Yes\nFormat settings, ReFrames       : 2 frames\nCodec ID                        : avc1\nCodec ID/Info                   : Advanced Video Coding\nDuration                        : 52mn 27s\nBit rate mode                   : Variable\nBit rate                        : 622 Kbps\nWidth                           : 704 pixels\nHeight                          : 384 pixels\nDisplay aspect ratio            : 16:9\nFrame rate mode                 : Variable\nFrame rate                      : 15.000 fps\nOriginal frame rate             : 29.970 fps\nMinimum frame rate              : 1.033 fps\nMaximum frame rate              : 29.970 fps\nColor space                     : YUV\nChroma subsampling              : 4:2:0\nBit depth                       : 8 bits\nScan type                       : Progressive\nBits/(Pixel*Frame)              : 0.153\nStream size                     : 233 MiB (84%)\n\nAudio\nID                              : 2\nFormat                          : AAC\nFormat/Info                     : Advanced Audio Codec\nFormat profile                  : LC\nCodec ID                        : 40\nDuration                        : 52mn 28s\nBit rate mode                   : Variable\nBit rate                        : 111 Kbps\nChannel(s)                      : 2 channels\nChannel positions               : Front: L R\nSampling rate                   : 48.0 KHz\nCompression mode                : Lossy\nStream size                     : 41.8 MiB (15%)\n\nScreenshot\n &lt;a href=&quot;\nhttp://leetleech.org/images/72021700380802335934.jpg&quot; rel=&quot;nofollow&quot; target=&quot;_NEW&quot;&gt;\nhttp://leetleech.org/images/72021700380802335934.jpg&lt;/a&gt; \n\n---------------------------------------------------------------------------------","torrent":{"xt":"urn:btih:61a8e7763fa4aca6a7c5384dbcaa078a518fd418","amp;dn":"WWE.NXT.2011.04.05.WebRip.x264","amp;tr":["udp%3A%2F%2Ftracker.openbittorrent.com%3A80","udp%3A%2F%2Fopen.demonii.com%3A1337","udp%3A%2F%2Ftracker.coppersurfer.tk%3A6969","udp%3A%2F%2Fexodus.desync.com%3A6969"],"infoHash":"61a8e7763fa4aca6a7c5384dbcaa078a518fd418","infoHashBuffer":{"type":"Buffer","data":[97,168,231,118,63,164,172,166,167,197,56,77,188,170,7,138,81,143,212,24]},"announce":[],"urlList":[]}}